# xmcd
#
# Track frame offsets: 
#        150
#        39758
#        66885
#        89794
#        107652
#        135667
#        157196
#
# Disc length: 2361 seconds
#
# Revision: 1
# Processed by: cddbd v1.5.1PL0 Copyright (c) Steve Scherf et al.
# Submitted via: ExactAudioCopy v0.95a5
#
DISCID=5c093707
DTITLE=El Prodigio Vs. Geovanny Polanco - La Batalla Del Típico
DYEAR=2003
DGENRE=Merengue
TTITLE0=El Lechero (Con Anthony Santos)
TTITLE1=Marapica
TTITLE2=Con El Agua Y El Jabón
TTITLE3=Los Limones
TTITLE4=El Tiro De Balilo
TTITLE5=Tú Eres Ajena
TTITLE6=La Torera
EXTD=YEAR: 2003
EXTT0=
EXTT1=
EXTT2=
EXTT3=
EXTT4=
EXTT5=
EXTT6=
PLAYORDER=
